# xmcd
#
# Track frame offsets:
#	150
#	18712
#	29296
#	44048
#	55669
#	71466
#	86749
#	105218
#	113751
#	129281
#
# Disc length: 1912 seconds
#
# Revision: 1
# Processed by: cddbd v1.5.1PL0 Copyright (c) Steve Scherf et al.
# Submitted via: CDex 1.50Beta5
#
DISCID=7c07760a
DTITLE=Piano Solo - Jazz Piano Standerds Vol.4
DYEAR=1900
DGENRE=Jazz
TTITLE0=ホワッツ・ニュー
TTITLE1=バードランドの子守唄
TTITLE2=いそしぎ
TTITLE3=サテン・ドール
TTITLE4=愛のまなざし
TTITLE5=メロディー・オブ・ラブ
TTITLE6=イージー・リビング
TTITLE7=ウィスパー・ノット
TTITLE8=主よ、人の望みの喜びよ
TTITLE9=アイ・ゴット・リズム
EXTD=
EXTT0=
EXTT1=
EXTT2=
EXTT3=
EXTT4=
EXTT5=
EXTT6=
EXTT7=
EXTT8=
EXTT9=
PLAYORDER=
